# xmcd
#
# Track frame offsets: 
#        150
#        19475
#        30971
#        35561
#        46481
#
# Disc length: 695 seconds
#
# Revision: 0
# Processed by: cddbd v1.4PL0 Copyright (c) Steve Scherf et al.
# Submitted via: ExactAudioCopy v0.90b3
#
DISCID=3802b505
DTITLE=Jason Ringenberg and Ginger - Live at the Borderline, London, 29 
DTITLE=May 2002
DYEAR=2002
DGENRE=Rock
TTITLE0=chat
TTITLE1=One Less Heartache
TTITLE2=chat
TTITLE3=Jimmie Rodger's Last Blue Yodel
TTITLE4=chat
EXTD=
EXTT0=
EXTT1=
EXTT2=
EXTT3=
EXTT4=
PLAYORDER=
